<?xml version="1.0" standalone="no"?>
<!DOCTYPE svg PUBLIC "-//W3C//DTD SVG 20010904//EN"
 "http://www.w3.org/TR/2001/REC-SVG-20010904/DTD/svg10.dtd">
<svg version="1.0" xmlns="http://www.w3.org/2000/svg"
 width="998.000000pt" height="998.000000pt" viewBox="0 0 998.000000 998.000000"
 preserveAspectRatio="xMidYMid meet">
<metadata>
Created by potrace 1.11, written by Peter Selinger 2001-2013
</metadata>
<g transform="translate(0.000000,998.000000) scale(0.100000,-0.100000)"
fill="#000000" stroke="none">
<path d="M1171 8664 c-124 -33 -227 -121 -284 -241 l-32 -68 -7 -2155 c-4
-1185 -4 -2427 -1 -2760 5 -575 6 -607 25 -652 11 -26 26 -53 34 -59 23 -19
17 -27 -37 -44 -53 -18 -129 -70 -166 -114 -12 -14 -164 -208 -338 -431 l-316
-405 3 -160 c3 -150 4 -162 27 -194 14 -19 46 -44 75 -57 l51 -24 4795 0 4795
0 51 24 c29 13 61 38 75 57 23 32 24 43 27 194 l3 160 -344 430 c-188 237
-364 449 -391 472 -26 23 -67 49 -91 58 l-43 17 32 51 31 50 0 2766 0 2766
-23 58 c-44 109 -140 205 -249 248 l-58 24 -3795 2 c-3293 2 -3802 0 -3849
-13z m7508 -448 c8 -10 10 -710 9 -2652 l-3 -2639 -3685 0 -3685 0 -3 2639
c-1 1942 1 2642 9 2652 17 21 7341 21 7358 0z"/>
<path d="M6952 7847 c-241 -595 -712 -1756 -726 -1789 l-16 -36 95 -38 c52
-20 98 -35 101 -32 9 9 824 2020 824 2033 0 6 -19 18 -42 27 -24 9 -66 25 -94
36 l-52 21 -90 -222z"/>
<path d="M5463 7484 c-310 -250 -563 -458 -563 -462 0 -7 1113 -894 1129 -900
9 -3 131 145 131 157 -1 3 -206 168 -456 366 -251 198 -460 365 -465 371 -6 8
139 131 451 383 253 205 462 376 465 382 6 9 -111 159 -124 159 -3 0 -259
-205 -568 -456z"/>
<path d="M7354 7878 c-27 -34 -55 -70 -61 -79 -12 -15 38 -58 452 -394 256
-207 465 -379 465 -383 -1 -4 -112 -95 -248 -202 -136 -107 -345 -273 -465
-368 l-217 -173 61 -80 c34 -43 64 -79 68 -79 7 0 1096 862 1123 888 15 16
-21 47 -545 471 -309 250 -567 456 -573 458 -6 2 -33 -24 -60 -59z"/>
<path d="M1472 7838 l3 -93 473 -3 472 -2 0 95 0 95 -475 0 -476 0 3 -92z"/>
<path d="M2614 7917 c-3 -8 -4 -49 -2 -93 l3 -79 455 0 455 0 3 93 3 92 -456
0 c-371 0 -457 -2 -461 -13z"/>
<path d="M1477 7553 c-4 -3 -7 -46 -7 -95 l0 -88 760 0 760 0 0 95 0 95 -753
0 c-415 0 -757 -3 -760 -7z"/>
<path d="M3187 7553 c-4 -3 -7 -46 -7 -95 l0 -88 815 0 815 0 0 95 0 95 -808
0 c-445 0 -812 -3 -815 -7z"/>
<path d="M1470 7085 l0 -95 585 0 585 0 0 95 0 95 -585 0 -585 0 0 -95z"/>
<path d="M2830 7085 l0 -95 380 0 380 0 0 95 0 95 -380 0 -380 0 0 -95z"/>
<path d="M3780 7085 l0 -95 303 2 302 3 3 93 3 92 -306 0 -305 0 0 -95z"/>
<path d="M1470 6710 l0 -90 920 0 920 0 0 90 0 90 -920 0 -920 0 0 -90z"/>
<path d="M3510 6710 l0 -90 260 0 260 0 0 90 0 90 -260 0 -260 0 0 -90z"/>
<path d="M4220 6710 l0 -90 345 0 345 0 0 90 0 90 -345 0 -345 0 0 -90z"/>
<path d="M1477 6423 c-4 -3 -7 -46 -7 -95 l0 -88 710 0 710 0 0 95 0 95 -703
0 c-387 0 -707 -3 -710 -7z"/>
<path d="M3200 6335 l0 -95 810 0 810 0 0 95 0 95 -810 0 -810 0 0 -95z"/>
<path d="M1470 5955 l0 -95 490 0 490 0 0 95 0 95 -490 0 -490 0 0 -95z"/>
<path d="M2640 5955 l0 -95 715 0 715 0 0 95 0 95 -715 0 -715 0 0 -95z"/>
<path d="M4260 5955 l0 -95 268 2 267 3 3 93 3 92 -271 0 -270 0 0 -95z"/>
<path d="M1470 5580 l0 -90 260 0 260 0 0 90 0 90 -260 0 -260 0 0 -90z"/>
<path d="M2270 5580 l0 -90 595 0 595 0 0 90 0 90 -595 0 -595 0 0 -90z"/>
<path d="M1470 5205 l0 -95 1545 0 1545 0 0 95 0 95 -1545 0 -1545 0 0 -95z"/>
<path d="M1472 4828 l3 -93 1013 -3 1012 -2 0 95 0 95 -1015 0 -1016 0 3 -92z"/>
<path d="M3690 4825 l0 -95 975 0 975 0 0 95 0 95 -975 0 -975 0 0 -95z"/>
<path d="M1470 4450 l0 -90 475 0 475 0 0 90 0 90 -475 0 -475 0 0 -90z"/>
<path d="M2610 4450 l0 -90 895 0 895 0 0 90 0 90 -895 0 -895 0 0 -90z"/>
<path d="M4590 4450 l0 -90 520 0 520 0 0 90 0 90 -520 0 -520 0 0 -90z"/>
<path d="M1470 4075 l0 -95 295 0 295 0 0 95 0 95 -295 0 -295 0 0 -95z"/>
<path d="M2250 4075 l0 -95 1310 0 1310 0 0 95 0 95 -1310 0 -1310 0 0 -95z"/>
<path d="M1472 3698 l3 -93 975 0 975 0 3 93 3 92 -981 0 -981 0 3 -92z"/>
<path d="M3612 3698 l3 -93 648 -3 647 -2 0 95 0 95 -650 0 -651 0 3 -92z"/>
<path d="M1477 3413 c-4 -3 -7 -46 -7 -95 l0 -88 490 0 490 0 0 95 0 95 -483
0 c-266 0 -487 -3 -490 -7z"/>
<path d="M2647 3413 c-4 -3 -7 -46 -7 -95 l0 -88 740 0 741 0 -3 93 -3 92
-731 3 c-402 1 -734 -1 -737 -5z"/>
<path d="M4307 3413 c-4 -3 -7 -46 -7 -95 l0 -88 565 0 566 0 -3 93 -3 92
-556 3 c-305 1 -559 -1 -562 -5z"/>
</g>
</svg>
